#!OML:ASF H:\MichaelJackson\Top Level 1\Subject 1\Session 1\male.ASF
:FULLY-SPECIFIED
:DEGREES
220
root -14.3728 16.8483 -13.8597 6.78302 10.2154 4.47925
lowerback 1.9149 -4.24 -1.85818
upperback -1.39361 -5.77598 -2.61908
thorax -2.59109 -2.87418 -1.41272
lowerneck -5.91037 -1.17411 1.66116
upperneck 0.013903 -1.7113 1.744
head 0.986644 -0.824884 0.216369
rclavicle 1.05107e-014 -3.61788e-014
rhumerus -63.7287 19.4879 -77.8658
rradius 122.93
rwrist -14.9685
rhand -12.9532 -29.8436
rfingers 7.12502
rthumb 13.1383 -419.41
lclavicle 1.05107e-014 -3.61788e-014
lhumerus -51.9384 -39.0867 116.454
lradius 52.6349
lwrist 10.2172
lhand 39.5858 24.6379
lfingers 7.12502
lthumb 62.051 36.0682
rfemur -27.105 -3.31383 2.31711
rtibia 50.0584
rfoot -4.06102 -13.3638
rtoes -39.351
lfemur -18.4778 10.9991 -12.3985
ltibia 38.5279
lfoot -15.0841 -1.32491
ltoes -4.28773
221
root -14.3951 16.8407 -13.8292 6.87569 9.12155 4.85325
lowerback 1.56973 -4.05353 -2.121
upperback -1.45588 -5.52953 -2.88435
thorax -2.46018 -2.75048 -1.57357
lowerneck -5.89837 -0.946242 1.85603
upperneck 0.355589 -1.42779 1.72802
head 1.09095 -0.678788 0.185434
rclavicle 3.516e-014 1.82882e-014
rhumerus -63.1583 21.7532 -76.033
rradius 124.692
rwrist -16.7681
rhand -2.92535 -27.8456
rfingers 7.12502
rthumb 22.7856 -416.52
lclavicle 3.516e-014 1.82882e-014
lhumerus -52.3254 -38.2 116.1
lradius 52.3797
lwrist 11.086
lhand 38.8626 24.8615
lfingers 7.12502
lthumb 61.4458 37.0288
rfemur -26.9447 -3.90547 1.8712
rtibia 49.4227
rfoot -5.75871 -11.9164
rtoes -38.4745
lfemur -16.756 8.65706 -11.0964
ltibia 36.4185
lfoot -15.7585 -5.98411
ltoes -6.82418
222
root -14.417 16.829 -13.7973 7.0196 8.14368 5.19726
lowerback 1.18354 -3.91895 -2.32932
upperback -1.57314 -5.34878 -3.13253
thorax -2.36711 -2.66021 -1.74348
lowerneck -5.87921 -0.718669 2.06124
upperneck 0.774123 -1.14634 1.68284
head 1.21929 -0.532787 0.14389
rclavicle 1.60519e-014 -2.78299e-015
rhumerus -62.2806 24.0607 -73.7764
rradius 126.261
rwrist -18.2899
rhand 8.00659 -26.0343
rfingers 7.12502
rthumb 33.2333 -412.985
lclavicle 1.60519e-014 -2.78299e-015
lhumerus -52.8643 -37.3984 115.887
lradius 52.1166
lwrist 11.8728
lhand 38.1564 25.0685
lfingers 7.12502
lthumb 60.8501 37.9243
rfemur -26.8578 -4.64045 1.44274
rtibia 48.8595
rfoot -7.40228 -10.2881
rtoes -37.3958
lfemur -15.117 6.2014 -9.8872
ltibia 34.1153
lfoot -16.6339 -10.634
ltoes -8.47254
223
root -14.4375 16.8126 -13.7651 7.2212 7.30082 5.47395
lowerback 0.750059 -3.84098 -2.42813
upperback -1.7158 -5.23784 -3.3462
thorax -2.28099 -2.60654 -1.93739
lowerneck -5.9546 -0.492139 2.23678
upperneck 1.26646 -0.868531 1.63008
head 1.38939 -0.386958 0.104764
rclavicle -2.05494e-014 -3.81667e-014
rhumerus -61.0232 26.4651 -71.0815
rradius 127.66
rwrist -19.8342
rhand 19.4808 -24.0812
rfingers 7.12502
rthumb 44.0511 -407.945
lclavicle -2.05494e-014 -3.81667e-014
lhumerus -53.451 -36.6943 115.754
lradius 51.8577
lwrist 12.4891
lhand 37.4479 25.1303
lfingers 7.12502
lthumb 60.248 38.6476
rfemur -26.8506 -5.51312 1.07547
rtibia 48.3651
rfoot -8.95408 -8.50489
rtoes -36.1917
lfemur -13.6419 3.66127 -8.74016
ltibia 31.7505
lfoot -17.5865 -15.1042
ltoes -9.36304
224
root -14.4563 16.7914 -13.7328 7.47456 6.60694 5.65668
lowerback 0.287265 -3.80868 -2.38215
upperback -1.90492 -5.1849 -3.52498
thorax -2.23654 -2.58413 -2.17343
lowerneck -6.00569 -0.280227 2.39952
upperneck 1.76839 -0.608567 1.56611
head 1.56013 -0.250015 0.0644655
rclavicle -3.97569e-015 1.59028e-015
rhumerus -59.4665 28.9671 -67.9704
rradius 128.945
rwrist -21.6945
rhand 30.8931 -21.8973
rfingers 7.12502
rthumb 54.508 -400.386
lclavicle -3.97569e-015 1.59028e-015
lhumerus -54.135 -36.0953 115.731
lradius 51.6279
lwrist 12.9156
lhand 36.7723 25.0219
lfingers 7.12502
lthumb 59.67 39.1441
rfemur -26.9119 -6.51647 0.8114
rtibia 47.9423
rfoot -10.4124 -6.62708
rtoes -34.9004
lfemur -12.3806 1.06879 -7.61737
ltibia 29.4504
lfoot -18.5002 -19.2309
ltoes -9.76027
225
root -14.4736 16.7654 -13.7014 7.76916 6.07057 5.7497
lowerback -0.211423 -3.82119 -2.20695
upperback -2.09046 -5.18804 -3.65697
thorax -2.17638 -2.59213 -2.43427
lowerneck -6.11813 -0.0832208 2.5179
upperneck 2.24646 -0.366643 1.50155
head 1.73589 -0.122307 0.0313915
rclavicle -2.54693e-014 6.36111e-015
rhumerus -57.4843 31.5134 -64.3379
rradius 130.149
rwrist -24.0939
rhand 41.7224 -19.791
rfingers 7.12502
rthumb 63.8067 -388.837
lclavicle -2.54693e-014 6.36111e-015
lhumerus -54.7804 -35.6208 115.749
lradius 51.4324
lwrist 13.1437
lhand 36.1461 24.7091
lfingers 7.12502
lthumb 59.1311 39.3704
rfemur -27.034 -7.65615 0.664014
rtibia 47.6036
rfoot -11.7611 -4.71625
rtoes -33.6132
lfemur -11.3622 -1.48842 -6.51127
ltibia 27.3218
lfoot -19.2847 -22.8863
ltoes -9.71696
226
root -14.4895 16.7352 -13.6714 8.0842 5.65689 5.75612
lowerback -0.688168 -3.85615 -1.89688
upperback -2.29208 -5.22335 -3.75741
thorax -2.15544 -2.61882 -2.73482
lowerneck -6.22296 0.0931474 2.60678
upperneck 2.66355 -0.148577 1.44342
head 1.89197 -0.00752533 0.00520844
rclavicle -6.31638e-014 -1.19271e-014
rhumerus -55.0909 33.9911 -60.1558
rradius 131.283
rwrist -27.1025
rhand 51.2259 -18.2023
rfingers 7.12502
rthumb 70.7327 -371.445
lclavicle -6.31638e-014 -1.19271e-014
lhumerus -55.4254 -35.2504 115.807
lradius 51.2905
lwrist 13.2375
lhand 35.5988 24.2865
lfingers 7.12502
lthumb 58.6576 39.4028
rfemur -27.2187 -8.90092 0.643604
rtibia 47.3641
rfoot -13.0064 -2.82075
rtoes -32.3435
lfemur -10.5769 -3.89186 -5.42006
ltibia 25.4377
lfoot -19.8217 -25.9746
ltoes -9.35886
227
root -14.5039 16.701 -13.6439 8.401 5.31868 5.7012
lowerback -1.16609 -3.89455 -1.49888
upperback -2.46281 -5.26389 -3.82769
thorax -2.108 -2.65005 -3.05498
lowerneck -6.35032 0.251832 2.66866
upperneck 2.97946 0.0496796 1.38184
head 2.02006 0.0955538 -0.0176431
rclavicle 9.91935e-014 2.70347e-014
rhumerus -52.1508 36.2322 -55.2995
rradius 132.291
rwrist -30.6448
rhand 58.4842 -17.3703
rfingers 7.12502
rthumb 74.2027 -350.199
lclavicle 9.91935e-014 2.70347e-014
lhumerus -55.9622 -34.9939 115.846
lradius 51.1974
lwrist 13.2154
lhand 35.275 23.8669
lfingers 7.12502
lthumb 58.3765 39.2457
rfemur -27.4744 -10.2242 0.731884
rtibia 47.2404
rfoot -14.1603 -0.980436
rtoes -31.1463
lfemur -9.99107 -6.02751 -4.37229
ltibia 23.8367
lfoot -20.0672 -28.4299
ltoes -8.75282
